<svg width="30" height="30" viewBox="0 0 30 30" fill="none" xmlns="http://www.w3.org/2000/svg">
<g clip-path="url(#clip0_7_277)">
<path fill-rule="evenodd" clip-rule="evenodd" d="M20.25 4C21.9076 4 23.4973 4.65848 24.6694 5.83058C25.8415 7.00269 26.5 8.5924 26.5 10.25V20.25C26.5 21.9076 25.8415 23.4973 24.6694 24.6694C23.4973 25.8415 21.9076 26.5 20.25 26.5H10.25C8.5924 26.5 7.00269 25.8415 5.83058 24.6694C4.65848 23.4973 4 21.9076 4 20.25V10.25C4 8.5924 4.65848 7.00269 5.83058 5.83058C7.00269 4.65848 8.5924 4 10.25 4H20.25ZM20.25 6.5H10.25C9.25544 6.5 8.30161 6.89509 7.59835 7.59835C6.89509 8.30161 6.5 9.25544 6.5 10.25V20.25C6.5 21.2446 6.89509 22.1984 7.59835 22.9017C8.30161 23.6049 9.25544 24 10.25 24H20.25C21.2446 24 22.1984 23.6049 22.9017 22.9017C23.6049 22.1984 24 21.2446 24 20.25V10.25C24 9.25544 23.6049 8.30161 22.9017 7.59835C22.1984 6.89509 21.2446 6.5 20.25 6.5ZM15.25 10.25C16.5761 10.25 17.8479 10.7768 18.7855 11.7145C19.7232 12.6521 20.25 13.9239 20.25 15.25C20.25 16.5761 19.7232 17.8479 18.7855 18.7855C17.8479 19.7232 16.5761 20.25 15.25 20.25C13.9239 20.25 12.6521 19.7232 11.7145 18.7855C10.7768 17.8479 10.25 16.5761 10.25 15.25C10.25 13.9239 10.7768 12.6521 11.7145 11.7145C12.6521 10.7768 13.9239 10.25 15.25 10.25ZM15.25 12.75C14.587 12.75 13.9511 13.0134 13.4822 13.4822C13.0134 13.9511 12.75 14.587 12.75 15.25C12.75 15.913 13.0134 16.5489 13.4822 17.0178C13.9511 17.4866 14.587 17.75 15.25 17.75C15.913 17.75 16.5489 17.4866 17.0178 17.0178C17.4866 16.5489 17.75 15.913 17.75 15.25C17.75 14.587 17.4866 13.9511 17.0178 13.4822C16.5489 13.0134 15.913 12.75 15.25 12.75ZM20.875 8.375C21.2065 8.375 21.5245 8.5067 21.7589 8.74112C21.9933 8.97554 22.125 9.29348 22.125 9.625C22.125 9.95652 21.9933 10.2745 21.7589 10.5089C21.5245 10.7433 21.2065 10.875 20.875 10.875C20.5435 10.875 20.2255 10.7433 19.9911 10.5089C19.7567 10.2745 19.625 9.95652 19.625 9.625C19.625 9.29348 19.7567 8.97554 19.9911 8.74112C20.2255 8.5067 20.5435 8.375 20.875 8.375Z" fill="white"/>
</g>
<defs>
<clipPath id="clip0_7_277">
<rect width="30" height="30" fill="white"/>
</clipPath>
</defs>
</svg>
